
<svg version="1.0" width="800.00098" height="331.48999" viewBox="0 0 600.00076 248.61749" preserveAspectRatio="xMidYMid meet" id="svg39" xmlns="http://www.w3.org/2000/svg">
  <defs id="defs43"></defs>
  
  <g transform="matrix(0.01214545,0,0,-0.01214545,0.01566036,248.6174)" fill="#000000" stroke="none" id="g37" style="fill:#ffffff">
    <path d="m 51,20456 c -13,-7 -30,-24 -37,-37 C -5,20385 -7,95 12,55 38,-2 -1,0 1010,0 c 994,0 973,-1 996,47 5,10 11,3901 14,8935 l 5,8916 875,-647 875,-647 5,-8270 c 3,-4665 9,-8277 14,-8287 23,-48 2,-47 996,-47 1011,0 972,-2 998,55 9,20 12,2329 12,10181 0,8770 -2,10159 -14,10183 -8,15 -26,32 -41,39 -19,9 -256,12 -955,12 -699,0 -936,-3 -955,-12 -56,-25 -55,-13 -55,-703 0,-350 -4,-635 -8,-633 -5,2 -403,296 -885,653 -483,358 -891,660 -908,673 l -32,22 h -936 c -758,-1 -941,-3 -960,-14 z" id="path27" style="fill:#ffffff"></path>
    <path d="m 10201,20456 c -13,-7 -30,-24 -37,-37 -19,-34 -21,-20324 -2,-20364 26,-57 -13,-55 998,-55 994,0 973,-1 996,47 5,10 11,3903 14,8938 l 5,8921 827,-611 827,-610 V 8383 c 1,-6414 4,-8308 13,-8328 26,-57 -13,-55 998,-55 1011,0 972,-2 998,55 9,20 12,1915 12,8338 l 1,8312 811,600 c 446,330 815,602 820,603 4,2 8,-4008 8,-8912 0,-6891 3,-8921 12,-8941 26,-57 -13,-55 998,-55 1011,0 972,-2 998,55 9,20 12,2329 12,10181 0,8861 -2,10159 -15,10183 -8,16 -27,33 -42,40 -21,8 -273,11 -973,9 l -945,-3 -1349,-999 c -743,-550 -1355,-999 -1361,-999 -6,0 -618,449 -1361,999 l -1349,999 -945,2 c -772,2 -949,0 -969,-11 z" id="path29" style="fill:#ffffff"></path>
    <path d="m 24741,20456 c -13,-7 -30,-24 -37,-37 -19,-34 -21,-20324 -2,-20364 26,-57 -13,-55 998,-55 1011,0 972,-2 998,55 17,38 17,20322 0,20360 -26,57 13,55 -1000,55 -755,-1 -938,-3 -957,-14 z" id="path31" style="fill:#ffffff"></path>
    <path d="m 31921,20456 c -13,-7 -30,-24 -37,-37 -21,-37 -20,-9248 0,-9288 8,-15 26,-32 41,-39 19,-9 256,-12 955,-12 h 930 v -845 -845 h -930 c -699,0 -936,-3 -955,-12 -15,-7 -33,-24 -41,-39 -12,-24 -14,-668 -14,-4643 0,-3557 3,-4621 12,-4641 26,-57 -13,-55 998,-55 994,0 973,-1 996,47 5,10 11,2030 14,4602 l 5,4584 768,-807 767,-807 V 3850 c 0,-2901 3,-3775 12,-3795 26,-57 -13,-55 998,-55 1011,0 972,-2 998,55 9,20 12,1084 12,4641 0,3975 -2,4619 -14,4643 -8,15 -26,32 -41,39 -19,9 -254,12 -945,12 h -920 v 845 845 h 920 c 691,0 926,3 945,12 15,7 33,24 41,39 21,42 21,9246 0,9288 -8,15 -26,32 -41,39 -19,9 -256,12 -956,12 -993,0 -972,1 -995,-47 -5,-10 -11,-2035 -14,-4614 l -5,-4595 -767,825 -767,826 -1,3762 c 0,2895 -3,3768 -12,3788 -26,57 13,55 -1000,55 -755,-1 -938,-3 -957,-14 z" id="path33" style="fill:#ffffff"></path>
    <path d="m 43871,20456 c -13,-7 -30,-24 -37,-37 -21,-37 -20,-9248 0,-9288 8,-15 26,-32 41,-39 19,-9 253,-12 940,-12 h 915 v -845 -845 h -915 c -687,0 -921,-3 -940,-12 -15,-7 -33,-24 -41,-39 -12,-24 -14,-668 -14,-4643 0,-3557 3,-4621 12,-4641 26,-57 -13,-55 998,-55 1011,0 972,-2 998,55 9,20 12,895 12,3800 v 3774 l 768,808 767,807 5,-4590 c 3,-2575 9,-4597 14,-4607 23,-48 2,-47 996,-47 1011,0 972,-2 998,55 9,20 12,1084 12,4641 0,3975 -2,4619 -14,4643 -8,15 -26,32 -41,39 -19,9 -257,12 -960,12 h -935 v 845 845 h 935 c 703,0 941,3 960,12 15,7 33,24 41,39 12,24 14,668 14,4644 0,3976 -2,4620 -14,4644 -8,15 -26,32 -41,39 -19,9 -256,12 -956,12 -1010,0 -971,2 -997,-55 -9,-20 -12,-892 -12,-3783 l -1,-3757 -769,-828 -770,-828 v 4585 c 0,3534 -3,4591 -12,4611 -26,57 13,55 -1000,55 -755,-1 -938,-3 -957,-14 z" id="path35" style="fill:#ffffff"></path>
  </g>
</svg>
